<svg id="visual" viewBox="0 0 900 300" width="900" height="300" xmlns="http://www.w3.org/2000/svg" xmlns:xlink="http://www.w3.org/1999/xlink" version="1.1"><rect x="0" y="0" width="900" height="300" fill="#4e000c"></rect><g transform="translate(440.8506773316933 159.5730882396931)"><path d="M77.3 -91C101.9 -71.5 124.8 -48.8 128.4 -23.4C132 2 116.2 30 98 51.9C79.8 73.9 59.1 89.8 35.4 99.3C11.7 108.7 -15 111.7 -37.7 103.5C-60.4 95.3 -79.1 75.9 -92.2 53.2C-105.3 30.6 -112.7 4.7 -110.1 -21C-107.5 -46.8 -94.9 -72.4 -74.9 -92.7C-54.9 -113 -27.4 -128 -0.5 -127.4C26.4 -126.7 52.7 -110.5 77.3 -91" fill="#4e0017"></path></g></svg>