<svg id="visual" viewBox="0 0 900 300" width="900" height="300" xmlns="http://www.w3.org/2000/svg" xmlns:xlink="http://www.w3.org/1999/xlink" version="1.1"><rect x="0" y="0" width="900" height="300" fill="#4e000c"></rect><g transform="translate(439.2105723774266 147.9655429967113)"><path d="M86.3 -96.6C110.9 -82.2 129.3 -54.1 132.1 -25.2C134.9 3.6 122 33.3 104.8 58.2C87.7 83 66.2 103.1 41.1 111.7C16 120.3 -12.9 117.5 -36.5 106.3C-60.1 95.1 -78.6 75.5 -91.3 53C-104.1 30.4 -111.1 4.8 -110.9 -23.6C-110.7 -51.9 -103.2 -83 -83.5 -98.3C-63.9 -113.6 -31.9 -113.1 -0.5 -112.4C30.9 -111.8 61.7 -111 86.3 -96.6" fill="#4e0017"></path></g></svg>