<svg id="visual" viewBox="0 0 900 300" width="900" height="300" xmlns="http://www.w3.org/2000/svg" xmlns:xlink="http://www.w3.org/1999/xlink" version="1.1"><path d="M0 128L12.5 133C25 138 50 148 75 139.5C100 131 125 104 150 102.5C175 101 200 125 225 132.8C250 140.7 275 132.3 300 128.3C325 124.3 350 124.7 375 132C400 139.3 425 153.7 450 159C475 164.3 500 160.7 525 152.3C550 144 575 131 600 121.8C625 112.7 650 107.3 675 99.5C700 91.7 725 81.3 750 82.3C775 83.3 800 95.7 825 95C850 94.3 875 80.7 887.5 73.8L900 67L900 301L887.5 301C875 301 850 301 825 301C800 301 775 301 750 301C725 301 700 301 675 301C650 301 625 301 600 301C575 301 550 301 525 301C500 301 475 301 450 301C425 301 400 301 375 301C350 301 325 301 300 301C275 301 250 301 225 301C200 301 175 301 150 301C125 301 100 301 75 301C50 301 25 301 12.5 301L0 301Z" fill="#a07373"></path><path d="M0 157L12.5 159.5C25 162 50 167 75 160.5C100 154 125 136 150 134.3C175 132.7 200 147.3 225 149.5C250 151.7 275 141.3 300 141.3C325 141.3 350 151.7 375 159.5C400 167.3 425 172.7 450 172.2C475 171.7 500 165.3 525 157.5C550 149.7 575 140.3 600 141.8C625 143.3 650 155.7 675 159.3C700 163 725 158 750 153.2C775 148.3 800 143.7 825 133.2C850 122.7 875 106.3 887.5 98.2L900 90L900 301L887.5 301C875 301 850 301 825 301C800 301 775 301 750 301C725 301 700 301 675 301C650 301 625 301 600 301C575 301 550 301 525 301C500 301 475 301 450 301C425 301 400 301 375 301C350 301 325 301 300 301C275 301 250 301 225 301C200 301 175 301 150 301C125 301 100 301 75 301C50 301 25 301 12.5 301L0 301Z" fill="#946566"></path><path d="M0 184L12.5 173.2C25 162.3 50 140.7 75 128.7C100 116.7 125 114.3 150 115.3C175 116.3 200 120.7 225 129.8C250 139 275 153 300 152.2C325 151.3 350 135.7 375 135.3C400 135 425 150 450 162.2C475 174.3 500 183.7 525 182.8C550 182 575 171 600 160.2C625 149.3 650 138.7 675 143.3C700 148 725 168 750 177.5C775 187 800 186 825 178.3C850 170.7 875 156.3 887.5 149.2L900 142L900 301L887.5 301C875 301 850 301 825 301C800 301 775 301 750 301C725 301 700 301 675 301C650 301 625 301 600 301C575 301 550 301 525 301C500 301 475 301 450 301C425 301 400 301 375 301C350 301 325 301 300 301C275 301 250 301 225 301C200 301 175 301 150 301C125 301 100 301 75 301C50 301 25 301 12.5 301L0 301Z" fill="#885859"></path><path d="M0 176L12.5 179.3C25 182.7 50 189.3 75 183.8C100 178.3 125 160.7 150 151.5C175 142.3 200 141.7 225 149.2C250 156.7 275 172.3 300 182C325 191.7 350 195.3 375 190.2C400 185 425 171 450 161.2C475 151.3 500 145.7 525 144.5C550 143.3 575 146.7 600 153.5C625 160.3 650 170.7 675 174.8C700 179 725 177 750 169.3C775 161.7 800 148.3 825 152.3C850 156.3 875 177.7 887.5 188.3L900 199L900 301L887.5 301C875 301 850 301 825 301C800 301 775 301 750 301C725 301 700 301 675 301C650 301 625 301 600 301C575 301 550 301 525 301C500 301 475 301 450 301C425 301 400 301 375 301C350 301 325 301 300 301C275 301 250 301 225 301C200 301 175 301 150 301C125 301 100 301 75 301C50 301 25 301 12.5 301L0 301Z" fill="#7d4b4c"></path><path d="M0 176L12.5 173.7C25 171.3 50 166.7 75 174C100 181.3 125 200.7 150 201.2C175 201.7 200 183.3 225 175.3C250 167.3 275 169.7 300 171.7C325 173.7 350 175.3 375 178.8C400 182.3 425 187.7 450 192.2C475 196.7 500 200.3 525 205.5C550 210.7 575 217.3 600 217.3C625 217.3 650 210.7 675 199.3C700 188 725 172 750 170C775 168 800 180 825 189.2C850 198.3 875 204.7 887.5 207.8L900 211L900 301L887.5 301C875 301 850 301 825 301C800 301 775 301 750 301C725 301 700 301 675 301C650 301 625 301 600 301C575 301 550 301 525 301C500 301 475 301 450 301C425 301 400 301 375 301C350 301 325 301 300 301C275 301 250 301 225 301C200 301 175 301 150 301C125 301 100 301 75 301C50 301 25 301 12.5 301L0 301Z" fill="#713e40"></path><path d="M0 180L12.5 181C25 182 50 184 75 184.3C100 184.7 125 183.3 150 189.8C175 196.3 200 210.7 225 214.8C250 219 275 213 300 210.7C325 208.3 350 209.7 375 210.2C400 210.7 425 210.3 450 212.7C475 215 500 220 525 221.5C550 223 575 221 600 219.8C625 218.7 650 218.3 675 216.2C700 214 725 210 750 212.2C775 214.3 800 222.7 825 224.5C850 226.3 875 221.7 887.5 219.3L900 217L900 301L887.5 301C875 301 850 301 825 301C800 301 775 301 750 301C725 301 700 301 675 301C650 301 625 301 600 301C575 301 550 301 525 301C500 301 475 301 450 301C425 301 400 301 375 301C350 301 325 301 300 301C275 301 250 301 225 301C200 301 175 301 150 301C125 301 100 301 75 301C50 301 25 301 12.5 301L0 301Z" fill="#653234"></path><path d="M0 199L12.5 200.2C25 201.3 50 203.7 75 210.8C100 218 125 230 150 233.2C175 236.3 200 230.7 225 227.3C250 224 275 223 300 220.3C325 217.7 350 213.3 375 211C400 208.7 425 208.3 450 213C475 217.7 500 227.3 525 226.5C550 225.7 575 214.3 600 214.3C625 214.3 650 225.7 675 231.7C700 237.7 725 238.3 750 235.8C775 233.3 800 227.7 825 229.2C850 230.7 875 239.3 887.5 243.7L900 248L900 301L887.5 301C875 301 850 301 825 301C800 301 775 301 750 301C725 301 700 301 675 301C650 301 625 301 600 301C575 301 550 301 525 301C500 301 475 301 450 301C425 301 400 301 375 301C350 301 325 301 300 301C275 301 250 301 225 301C200 301 175 301 150 301C125 301 100 301 75 301C50 301 25 301 12.5 301L0 301Z" fill="#592628"></path><path d="M0 221L12.5 225.8C25 230.7 50 240.3 75 245.7C100 251 125 252 150 254.2C175 256.3 200 259.7 225 255.2C250 250.7 275 238.3 300 235.5C325 232.7 350 239.3 375 245.3C400 251.3 425 256.7 450 258.3C475 260 500 258 525 254C550 250 575 244 600 243.8C625 243.7 650 249.3 675 249C700 248.7 725 242.3 750 236C775 229.7 800 223.3 825 224.3C850 225.3 875 233.7 887.5 237.8L900 242L900 301L887.5 301C875 301 850 301 825 301C800 301 775 301 750 301C725 301 700 301 675 301C650 301 625 301 600 301C575 301 550 301 525 301C500 301 475 301 450 301C425 301 400 301 375 301C350 301 325 301 300 301C275 301 250 301 225 301C200 301 175 301 150 301C125 301 100 301 75 301C50 301 25 301 12.5 301L0 301Z" fill="#4e191d"></path><path d="M0 269L12.5 269.7C25 270.3 50 271.7 75 269.7C100 267.7 125 262.3 150 262.7C175 263 200 269 225 271.7C250 274.3 275 273.7 300 273.2C325 272.7 350 272.3 375 266.7C400 261 425 250 450 249.2C475 248.3 500 257.7 525 263.5C550 269.3 575 271.7 600 267.3C625 263 650 252 675 248C700 244 725 247 750 247.2C775 247.3 800 244.7 825 247.7C850 250.7 875 259.3 887.5 263.7L900 268L900 301L887.5 301C875 301 850 301 825 301C800 301 775 301 750 301C725 301 700 301 675 301C650 301 625 301 600 301C575 301 550 301 525 301C500 301 475 301 450 301C425 301 400 301 375 301C350 301 325 301 300 301C275 301 250 301 225 301C200 301 175 301 150 301C125 301 100 301 75 301C50 301 25 301 12.5 301L0 301Z" fill="#420c12"></path><path d="M0 260L12.5 261.7C25 263.3 50 266.7 75 269C100 271.3 125 272.7 150 271.2C175 269.7 200 265.3 225 267.5C250 269.7 275 278.3 300 282C325 285.7 350 284.3 375 284C400 283.7 425 284.3 450 283C475 281.7 500 278.3 525 275.2C550 272 575 269 600 270.3C625 271.7 650 277.3 675 279.2C700 281 725 279 750 278.7C775 278.3 800 279.7 825 280.3C850 281 875 281 887.5 281L900 281L900 301L887.5 301C875 301 850 301 825 301C800 301 775 301 750 301C725 301 700 301 675 301C650 301 625 301 600 301C575 301 550 301 525 301C500 301 475 301 450 301C425 301 400 301 375 301C350 301 325 301 300 301C275 301 250 301 225 301C200 301 175 301 150 301C125 301 100 301 75 301C50 301 25 301 12.5 301L0 301Z" fill="#370000"></path></svg>