<svg id="visual" viewBox="0 0 900 300" width="900" height="300" xmlns="http://www.w3.org/2000/svg" xmlns:xlink="http://www.w3.org/1999/xlink" version="1.1"><path d="M0 283L50 272.2C100 261.3 200 239.7 300 226.5C400 213.3 500 208.7 600 216.8C700 225 800 246 850 256.5L900 267L900 0L850 0C800 0 700 0 600 0C500 0 400 0 300 0C200 0 100 0 50 0L0 0Z" fill="#4e000c"></path><path d="M0 163L50 159.2C100 155.3 200 147.7 300 147C400 146.3 500 152.7 600 159.3C700 166 800 173 850 176.5L900 180L900 0L850 0C800 0 700 0 600 0C500 0 400 0 300 0C200 0 100 0 50 0L0 0Z" fill="#370000"></path></svg>