<svg id="visual" viewBox="0 0 900 150" width="900" height="150" xmlns="http://www.w3.org/2000/svg" xmlns:xlink="http://www.w3.org/1999/xlink" version="1.1"><path d="M0 85L75 74.7C150 64.3 300 43.7 450 39.5C600 35.3 750 47.7 825 53.8L900 60L900 151L825 151C750 151 600 151 450 151C300 151 150 151 75 151L0 151Z" fill="#2b0303"></path><path d="M0 76L75 86.5C150 97 300 118 450 116.7C600 115.3 750 91.7 825 79.8L900 68L900 151L825 151C750 151 600 151 450 151C300 151 150 151 75 151L0 151Z" fill="#370000"></path></svg>